<svg xmlns="http://www.w3.org/2000/svg" viewBox="0 0 400 300">
  <rect width="400" height="300" fill="#1A1A2E"/>
  <path d="M200,68 L200,128 L250,88 Z" fill="#E53935"/>
  <path d="M200,68 L200,128 L148,95 Z" fill="#FB8C00"/>
  <path d="M200,128 L148,95 L130,148 Z" fill="#FDD835"/>
  <path d="M200,128 L130,148 L148,198 Z" fill="#43A047"/>
  <path d="M200,128 L148,198 L200,188 Z" fill="#00ACC1"/>
  <path d="M200,128 L200,188 L252,198 Z" fill="#7B1FA2"/>
  <path d="M200,128 L252,198 L270,148 Z" fill="#E53935"/>
  <path d="M200,128 L270,148 L250,88 Z" fill="#FB8C00"/>
  <circle cx="200" cy="128" r="22" fill="#1A1A2E"/>
  <circle cx="200" cy="128" r="14" fill="rgba(255,255,255,.15)"/>
  <circle cx="200" cy="128" r="5" fill="#fff" opacity=".9"/>
  <rect x="148" y="246" width="104" height="22" rx="11" fill="rgba(0,0,0,.35)"/>
  <text x="200" y="262" text-anchor="middle" fill="rgba(255,255,255,.85)" font-family="system-ui,sans-serif" font-size="11" letter-spacing="1">EVOLUTION</text>
</svg>
